<?xml version="1.0" encoding="UTF-8" standalone="no"?>
<!DOCTYPE svg PUBLIC "-//W3C//DTD SVG 1.1//EN" "http://www.w3.org/Graphics/SVG/1.1/DTD/svg11.dtd">
<!-- Generated by Microsoft Visio, SVG Export nn.svg back -->
<svg xmlns="http://www.w3.org/2000/svg" xmlns:xlink="http://www.w3.org/1999/xlink" xmlns:ev="http://www.w3.org/2001/xml-events"
		xmlns:v="http://schemas.microsoft.com/visio/2003/SVGExtensions/" width="6.88021in" height="5.48888in"
		viewBox="0 0 495.375 395.2" xml:space="preserve" color-interpolation-filters="sRGB" class="st15">
	<v:documentProperties v:langID="1033" v:viewMarkup="false">
		<v:userDefs>
			<v:ud v:nameU="msvSubprocessMaster" v:prompt="" v:val="VT4(Rectangle)"/>
			<v:ud v:nameU="msvNoAutoConnect" v:val="VT0(1):26"/>
		</v:userDefs>
	</v:documentProperties>

	<style type="text/css">
	<![CDATA[
		.st1 {fill:url(#grad0-4);stroke:#2e75b5;stroke-width:2.25}
		.st2 {fill:url(#grad0-14);stroke:#2e75b5;stroke-width:2.25}
		.st3 {marker-end:url(#mrkr4-20);stroke:#000000;stroke-linecap:round;stroke-linejoin:round;stroke-width:1.5}
		.st4 {fill:#000000;fill-opacity:1;stroke:#000000;stroke-opacity:1;stroke-width:0.37313432835821}
		.st5 {fill:#ffffff;stroke:#ed7d31;stroke-width:1.5}
		.st6 {fill:none;stroke:none;stroke-width:0.25}
		.st7 {fill:#000000;font-family:Calibri;font-size:1.99999em}
		.st8 {fill:#000000;font-family:Calibri;font-size:1.99999em;font-weight:bold}
		.st9 {fill:#000000;font-family:Calibri;font-size:1.5em}
		.st10 {font-size:1em}
		.st11 {visibility:visible}
		.st12 {fill:#5b9bd5;fill-opacity:0.25;filter:url(#filter_2);stroke:none}
		.st13 {fill:#ed7d31;stroke:none;stroke-width:0.75}
		.st14 {fill:#000000;stroke:none;stroke-width:0.75}
		.st15 {fill:none;fill-rule:evenodd;font-size:12px;overflow:visible;stroke-linecap:square;stroke-miterlimit:3}
	]]>
	</style>

	<defs id="Patterns_And_Gradients">
		<linearGradient id="grad0-4" x1="0" y1="0" x2="1" y2="0" gradientTransform="rotate(60 0.5 0.5)">
			<stop offset="0" stop-color="#e9eff7" stop-opacity="1"/>
			<stop offset="0.24" stop-color="#f4f7fb" stop-opacity="1"/>
			<stop offset="0.54" stop-color="#feffff" stop-opacity="1"/>
		</linearGradient>
		<linearGradient id="grad0-14" x1="0" y1="0" x2="1" y2="0" gradientTransform="rotate(60 0.5 0.5)">
			<stop offset="0" stop-color="#ebf1e8" stop-opacity="1"/>
			<stop offset="0.24" stop-color="#f5f8f4" stop-opacity="1"/>
			<stop offset="0.54" stop-color="#feffff" stop-opacity="1"/>
		</linearGradient>
	</defs>
	<defs id="Markers">
		<g id="lend4">
			<path d="M 2 1 L 0 0 L 2 -1 L 2 1 " style="stroke:none"/>
		</g>
		<marker id="mrkr4-20" class="st4" v:arrowType="4" v:arrowSize="2" v:setback="5.36" refX="-5.36" orient="auto"
				markerUnits="strokeWidth" overflow="visible">
			<use xlink:href="#lend4" transform="scale(-2.68,-2.68) "/>
		</marker>
	</defs>
	<defs id="Filters">
		<filter id="filter_2">
			<feGaussianBlur stdDeviation="2"/>
		</filter>
	</defs>
	<g v:mID="7" v:index="1" v:groupContext="foregroundPage">
		<v:userDefs>
			<v:ud v:nameU="msvThemeOrder" v:val="VT0(0):26"/>
		</v:userDefs>
		<title>neural-network</title>
		<v:pageProperties v:drawingScale="1" v:pageScale="1" v:drawingUnits="0" v:shadowOffsetX="9" v:shadowOffsetY="-9"/>
		<v:layer v:name="Connector" v:index="0"/>
		<g id="shape1-1" v:mID="1" v:groupContext="shape" transform="translate(49.9595,-246.926)">
			<title>Circle</title>
			<v:userDefs>
				<v:ud v:nameU="visVersion" v:val="VT0(15):26"/>
			</v:userDefs>
			<path d="M0 377.6 A17.5948 17.5948 0 1 1 35.19 377.6 A17.5948 17.5948 0 0 1 0 377.6 Z" class="st1"/>
		</g>
		<g id="shape2-5" v:mID="2" v:groupContext="shape" transform="translate(49.9595,-187.543)">
			<title>Circle.2</title>
			<v:userDefs>
				<v:ud v:nameU="visVersion" v:val="VT0(15):26"/>
			</v:userDefs>
			<path d="M0 377.6 A17.5948 17.5948 0 1 1 35.19 377.6 A17.5948 17.5948 0 0 1 0 377.6 Z" class="st1"/>
		</g>
		<g id="shape3-8" v:mID="3" v:groupContext="shape" transform="translate(49.9595,-128.161)">
			<title>Circle.3</title>
			<v:userDefs>
				<v:ud v:nameU="visVersion" v:val="VT0(15):26"/>
			</v:userDefs>
			<path d="M0 377.6 A17.5948 17.5948 0 1 1 35.19 377.6 A17.5948 17.5948 0 0 1 0 377.6 Z" class="st1"/>
		</g>
		<g id="shape12-11" v:mID="12" v:groupContext="shape" transform="translate(414.655,-216.99)">
			<title>Circle.17</title>
			<v:userDefs>
				<v:ud v:nameU="visVersion" v:val="VT0(15):26"/>
			</v:userDefs>
			<path d="M0 377.6 A17.5948 17.5948 0 1 1 35.19 377.6 A17.5948 17.5948 0 0 1 0 377.6 Z" class="st2"/>
		</g>
		<g id="shape25-15" v:mID="25" v:groupContext="shape" v:layerMember="0" transform="translate(206.714,-280.08)">
			<title>Dynamic connector.40</title>
			<path d="M0 386.2 L78.34 386.2" class="st3"/>
		</g>
		<g id="shape27-21" v:mID="27" v:groupContext="shape" v:layerMember="0" transform="translate(206.714,-289.08)">
			<title>Dynamic connector.42</title>
			<path d="M0 395.2 L82.62 551.58" class="st3"/>
		</g>
		<g id="shape28-26" v:mID="28" v:groupContext="shape" v:layerMember="0" transform="translate(206.714,-180.09)">
			<title>Dynamic connector.43</title>
			<path d="M0 395.2 L81.38 292.51" class="st3"/>
		</g>
		<g id="shape44-31" v:mID="44" v:groupContext="shape" transform="translate(414.655,-162.495)">
			<title>Circle.44</title>
			<v:userDefs>
				<v:ud v:nameU="visVersion" v:val="VT0(15):26"/>
			</v:userDefs>
			<path d="M0 377.6 A17.5948 17.5948 0 1 1 35.19 377.6 A17.5948 17.5948 0 0 1 0 377.6 Z" class="st2"/>
		</g>
		<g id="shape46-34" v:mID="46" v:groupContext="shape" v:layerMember="0" transform="translate(206.714,-180.09)">
			<title>Dynamic connector.46</title>
			<path d="M0 395.2 L79.58 344.99" class="st3"/>
		</g>
		<g id="shape50-39" v:mID="50" v:groupContext="shape" v:layerMember="0" transform="translate(206.714,-289.08)">
			<title>Dynamic connector.50</title>
			<path d="M0 395.2 L79.58 445.4" class="st3"/>
		</g>
		<g id="shape51-44" v:mID="51" v:groupContext="shape" v:layerMember="0" transform="translate(206.714,-289.08)">
			<title>Dynamic connector.51</title>
			<path d="M0 395.2 L81.38 497.89" class="st3"/>
		</g>
		<g id="shape52-49" v:mID="52" v:groupContext="shape" v:layerMember="0" transform="translate(206.714,-234.585)">
			<title>Dynamic connector.52</title>
			<path d="M0 395.2 L79.58 445.4" class="st3"/>
		</g>
		<g id="shape53-54" v:mID="53" v:groupContext="shape" v:layerMember="0" transform="translate(206.714,-234.585)">
			<title>Dynamic connector.53</title>
			<path d="M0 395.2 L81.38 497.89" class="st3"/>
		</g>
		<g id="shape55-59" v:mID="55" v:groupContext="shape" v:layerMember="0" transform="translate(206.714,-234.585)">
			<title>Dynamic connector.55</title>
			<path d="M0 395.2 L79.58 344.99" class="st3"/>
		</g>
		<g id="shape56-64" v:mID="56" v:groupContext="shape" v:layerMember="0" transform="translate(206.714,-225.585)">
			<title>Dynamic connector.56</title>
			<path d="M0 386.2 L78.34 386.2" class="st3"/>
		</g>
		<g id="shape57-69" v:mID="57" v:groupContext="shape" v:layerMember="0" transform="translate(206.714,-180.09)">
			<title>Dynamic connector.57</title>
			<path d="M0 395.2 L79.58 445.4" class="st3"/>
		</g>
		<g id="shape59-74" v:mID="59" v:groupContext="shape" v:layerMember="0" transform="translate(206.714,-171.09)">
			<title>Dynamic connector.59</title>
			<path d="M0 386.2 L78.34 386.2" class="st3"/>
		</g>
		<g id="shape60-79" v:mID="60" v:groupContext="shape" v:layerMember="0" transform="translate(206.714,-125.595)">
			<title>Dynamic connector.60</title>
			<path d="M0 395.2 L82.62 238.82" class="st3"/>
		</g>
		<g id="shape61-84" v:mID="61" v:groupContext="shape" v:layerMember="0" transform="translate(206.714,-125.595)">
			<title>Dynamic connector.61</title>
			<path d="M0 395.2 L81.38 292.51" class="st3"/>
		</g>
		<g id="shape62-89" v:mID="62" v:groupContext="shape" v:layerMember="0" transform="translate(206.714,-125.595)">
			<title>Dynamic connector.62</title>
			<path d="M0 395.2 L79.58 344.99" class="st3"/>
		</g>
		<g id="shape63-94" v:mID="63" v:groupContext="shape" v:layerMember="0" transform="translate(206.714,-134.595)">
			<title>Dynamic connector.63</title>
			<path d="M0 404.2 L78.34 404.2" class="st3"/>
		</g>
		<g id="shape70-99" v:mID="70" v:groupContext="shape" v:layerMember="0" transform="translate(85.1492,-264.521)">
			<title>Dynamic connector.70</title>
			<path d="M0 395.2 L78.64 372.84" class="st3"/>
		</g>
		<g id="shape71-104" v:mID="71" v:groupContext="shape" v:layerMember="0" transform="translate(85.1492,-264.521)">
			<title>Dynamic connector.71</title>
			<path d="M0 395.2 L78.78 422.5" class="st3"/>
		</g>
		<g id="shape72-109" v:mID="72" v:groupContext="shape" v:layerMember="0" transform="translate(85.1492,-264.521)">
			<title>Dynamic connector.72</title>
			<path d="M0 395.2 L80.63 474.01" class="st3"/>
		</g>
		<g id="shape73-114" v:mID="73" v:groupContext="shape" v:layerMember="0" transform="translate(85.1492,-264.521)">
			<title>Dynamic connector.73</title>
			<path d="M0 395.2 L82.13 527.3" class="st3"/>
		</g>
		<g id="shape75-119" v:mID="75" v:groupContext="shape" v:layerMember="0" transform="translate(85.1492,-205.138)">
			<title>Dynamic connector.75</title>
			<path d="M0 395.2 L80.61 316.86" class="st3"/>
		</g>
		<g id="shape76-124" v:mID="76" v:groupContext="shape" v:layerMember="0" transform="translate(85.1492,-205.138)">
			<title>Dynamic connector.76</title>
			<path d="M0 395.2 L78.77 368.35" class="st3"/>
		</g>
		<g id="shape77-129" v:mID="77" v:groupContext="shape" v:layerMember="0" transform="translate(85.1492,-205.138)">
			<title>Dynamic connector.77</title>
			<path d="M0 395.2 L78.65 418.01" class="st3"/>
		</g>
		<g id="shape78-134" v:mID="78" v:groupContext="shape" v:layerMember="0" transform="translate(85.1492,-205.138)">
			<title>Dynamic connector.78</title>
			<path d="M0 395.2 L80.46 469.3" class="st3"/>
		</g>
		<g id="shape80-139" v:mID="80" v:groupContext="shape" v:layerMember="0" transform="translate(85.1492,-145.756)">
			<title>Dynamic connector.80</title>
			<path d="M0 395.2 L82.23 258.76" class="st3"/>
		</g>
		<g id="shape81-144" v:mID="81" v:groupContext="shape" v:layerMember="0" transform="translate(85.1492,-145.756)">
			<title>Dynamic connector.81</title>
			<path d="M0 395.2 L80.77 312.13" class="st3"/>
		</g>
		<g id="shape82-149" v:mID="82" v:groupContext="shape" v:layerMember="0" transform="translate(85.1492,-145.756)">
			<title>Dynamic connector.82</title>
			<path d="M0 395.2 L78.9 363.84" class="st3"/>
		</g>
		<g id="shape83-154" v:mID="83" v:groupContext="shape" v:layerMember="0" transform="translate(85.1492,-145.756)">
			<title>Dynamic connector.83</title>
			<path d="M0 395.2 L78.55 413.53" class="st3"/>
		</g>
		<g id="shape90-159" v:mID="90" v:groupContext="shape" v:layerMember="0" transform="translate(328.28,-289.08)">
			<title>Dynamic connector.90</title>
			<path d="M0 395.2 L79.58 445.4" class="st3"/>
		</g>
		<g id="shape91-164" v:mID="91" v:groupContext="shape" v:layerMember="0" transform="translate(328.28,-289.08)">
			<title>Dynamic connector.91</title>
			<path d="M0 395.2 L81.38 497.89" class="st3"/>
		</g>
		<g id="shape93-169" v:mID="93" v:groupContext="shape" v:layerMember="0" transform="translate(328.28,-225.585)">
			<title>Dynamic connector.93</title>
			<path d="M0 386.2 L78.34 386.2" class="st3"/>
		</g>
		<g id="shape94-174" v:mID="94" v:groupContext="shape" v:layerMember="0" transform="translate(328.28,-234.585)">
			<title>Dynamic connector.94</title>
			<path d="M0 395.2 L79.58 445.4" class="st3"/>
		</g>
		<g id="shape96-179" v:mID="96" v:groupContext="shape" v:layerMember="0" transform="translate(328.28,-171.09)">
			<title>Dynamic connector.96</title>
			<path d="M0 386.2 L78.34 386.2" class="st3"/>
		</g>
		<g id="shape97-184" v:mID="97" v:groupContext="shape" v:layerMember="0" transform="translate(328.28,-180.09)">
			<title>Dynamic connector.97</title>
			<path d="M0 395.2 L79.58 344.99" class="st3"/>
		</g>
		<g id="shape99-189" v:mID="99" v:groupContext="shape" v:layerMember="0" transform="translate(328.28,-125.595)">
			<title>Dynamic connector.99</title>
			<path d="M0 395.2 L81.38 292.51" class="st3"/>
		</g>
		<g id="shape100-194" v:mID="100" v:groupContext="shape" v:layerMember="0" transform="translate(328.28,-125.595)">
			<title>Dynamic connector.100</title>
			<path d="M0 395.2 L79.58 344.99" class="st3"/>
		</g>
		<g id="shape8-199" v:mID="8" v:groupContext="shape" transform="translate(171.525,-162.495)">
			<title>Circle.13</title>
			<v:userDefs>
				<v:ud v:nameU="visVersion" v:val="VT0(15):26"/>
			</v:userDefs>
			<path d="M0 377.6 A17.5948 17.5948 0 1 1 35.19 377.6 A17.5948 17.5948 0 0 1 0 377.6 Z" class="st5"/>
		</g>
		<g id="shape37-201" v:mID="37" v:groupContext="shape" transform="translate(293.09,-162.495)">
			<title>Circle.37</title>
			<v:userDefs>
				<v:ud v:nameU="visVersion" v:val="VT0(15):26"/>
			</v:userDefs>
			<path d="M0 377.6 A17.5948 17.5948 0 1 1 35.19 377.6 A17.5948 17.5948 0 0 1 0 377.6 Z" class="st5"/>
		</g>
		<g id="shape10-203" v:mID="10" v:groupContext="shape" transform="translate(171.525,-108)">
			<title>Circle.15</title>
			<v:userDefs>
				<v:ud v:nameU="visVersion" v:val="VT0(15):26"/>
			</v:userDefs>
			<path d="M0 377.6 A17.5948 17.5948 0 1 1 35.19 377.6 A17.5948 17.5948 0 0 1 0 377.6 Z" class="st5"/>
		</g>
		<g id="shape39-205" v:mID="39" v:groupContext="shape" transform="translate(293.09,-108)">
			<title>Circle.39</title>
			<v:userDefs>
				<v:ud v:nameU="visVersion" v:val="VT0(15):26"/>
			</v:userDefs>
			<path d="M0 377.6 A17.5948 17.5948 0 1 1 35.19 377.6 A17.5948 17.5948 0 0 1 0 377.6 Z" class="st5"/>
		</g>
		<g id="shape4-207" v:mID="4" v:groupContext="shape" transform="translate(171.525,-271.485)">
			<title>Circle.4</title>
			<v:userDefs>
				<v:ud v:nameU="visVersion" v:val="VT0(15):26"/>
			</v:userDefs>
			<path d="M0 377.6 A17.5948 17.5948 0 1 1 35.19 377.6 A17.5948 17.5948 0 0 1 0 377.6 Z" class="st5"/>
		</g>
		<g id="shape33-209" v:mID="33" v:groupContext="shape" transform="translate(293.09,-271.485)">
			<title>Circle.33</title>
			<v:userDefs>
				<v:ud v:nameU="visVersion" v:val="VT0(15):26"/>
			</v:userDefs>
			<path d="M0 377.6 A17.5948 17.5948 0 1 1 35.19 377.6 A17.5948 17.5948 0 0 1 0 377.6 Z" class="st5"/>
		</g>
		<g id="shape6-211" v:mID="6" v:groupContext="shape" transform="translate(171.525,-216.99)">
			<title>Circle.11</title>
			<v:userDefs>
				<v:ud v:nameU="visVersion" v:val="VT0(15):26"/>
			</v:userDefs>
			<path d="M0 377.6 A17.5948 17.5948 0 1 1 35.19 377.6 A17.5948 17.5948 0 0 1 0 377.6 Z" class="st5"/>
		</g>
		<g id="shape35-213" v:mID="35" v:groupContext="shape" transform="translate(293.09,-216.99)">
			<title>Circle.35</title>
			<v:userDefs>
				<v:ud v:nameU="visVersion" v:val="VT0(15):26"/>
			</v:userDefs>
			<path d="M0 377.6 A17.5948 17.5948 0 1 1 35.19 377.6 A17.5948 17.5948 0 0 1 0 377.6 Z" class="st5"/>
		</g>
		<g id="shape125-215" v:mID="125" v:groupContext="shape" transform="translate(31.8043,-294.112)">
			<title>Sheet.125</title>
			<desc>Inputs</desc>
			<v:textBlock v:margins="rect(4,4,4,4)"/>
			<v:textRect cx="35.75" cy="386.668" width="71.51" height="17.0628"/>
			<rect x="0" y="378.137" width="71.5" height="17.0628" class="st6"/>
			<text x="5.1" y="393.87" class="st7" v:langID="1033"><v:paragraph v:horizAlign="1"/><v:tabList/>Inputs</text>		</g>
		<g id="shape126-218" v:mID="126" v:groupContext="shape" transform="translate(31.5,-346.5)">
			<title>Sheet.126</title>
			<desc>Thing that Computes Functions</desc>
			<v:textBlock v:margins="rect(4,4,4,4)"/>
			<v:textRect cx="218.25" cy="385.2" width="436.5" height="20"/>
			<rect x="0" y="375.2" width="436.5" height="20" class="st6"/>
			<text x="63.35" y="392.4" class="st8" v:langID="1033"><v:paragraph v:horizAlign="1"/><v:tabList/>Thing that Computes Functions</text>		</g>
		<g id="shape127-221" v:mID="127" v:groupContext="shape" transform="translate(387.375,-263.685)">
			<title>Sheet.127</title>
			<desc>Outputs</desc>
			<v:textBlock v:margins="rect(4,4,4,4)"/>
			<v:textRect cx="44.875" cy="388.683" width="89.75" height="13.0332"/>
			<rect x="0" y="382.166" width="89.75" height="13.0332" class="st6"/>
			<text x="5.28" y="395.88" class="st7" v:langID="1033"><v:paragraph v:horizAlign="1"/><v:tabList/>Outputs</text>		</g>
		<g id="shape128-224" v:mID="128" v:groupContext="shape" transform="translate(65.25,-31.5)">
			<title>Sheet.128</title>
			<desc>Stuff that changes depending on inputs</desc>
			<v:textBlock v:margins="rect(4,4,4,4)"/>
			<v:textRect cx="91.4728" cy="372.828" width="182.95" height="44.7428"/>
			<rect x="0" y="350.457" width="182.946" height="44.7428" class="st6"/>
			<text x="25.16" y="367.43" class="st9" v:langID="1033"><v:paragraph v:horizAlign="1"/><v:tabList/>Stuff that changes <tspan
						x="16.24" dy="1.2em" class="st10">depending on inputs</tspan></text>		</g>
		<g id="shape129-228" v:mID="129" v:groupContext="shape" transform="translate(283.685,-31.5)">
			<title>Sheet.129</title>
			<desc>Stuff that doesn’t change</desc>
			<v:textBlock v:margins="rect(4,4,4,4)"/>
			<v:textRect cx="67.4076" cy="372.828" width="134.82" height="44.7428"/>
			<rect x="0" y="350.457" width="134.815" height="44.7428" class="st6"/>
			<text x="32.93" y="367.43" class="st9" v:langID="1033"><v:paragraph v:horizAlign="1"/><v:tabList/>Stuff that <tspan
						x="11.62" dy="1.2em" class="st10">doesn</tspan>’t change</text>		</g>
		<g id="shape134-232" v:mID="134" v:groupContext="shape" transform="translate(437.349,578.864) rotate(137.632)">
			<title>Simple Arrow</title>
			<v:userDefs>
				<v:ud v:nameU="visVersion" v:val="VT0(15):26"/>
				<v:ud v:nameU="ArrowType" v:prompt="" v:val="VT0(2):26"/>
			</v:userDefs>
			<g id="shadow134-233" v:groupContext="shadow" v:shadowOffsetX="0.345598" v:shadowOffsetY="-1.97279" v:shadowType="1"
					transform="matrix(1,0,0,1,1.07411,-1.69045)" class="st11">
				<path d="M0 395.2 L12 383.2 L12 389.2 L33.2 389.2 L33.2 395.2 L33.2 401.2 L12 401.2 L12 407.19 L0 395.2 Z"
						class="st12"/>
			</g>
			<path d="M0 395.2 L12 383.2 L12 389.2 L33.2 389.2 L33.2 395.2 L33.2 401.2 L12 401.2 L12 407.19 L0 395.2 Z" class="st13"/>
		</g>
		<g id="shape136-237" v:mID="136" v:groupContext="shape" transform="translate(501.052,-16.1595) rotate(40.7178)">
			<title>Simple Arrow.136</title>
			<v:userDefs>
				<v:ud v:nameU="visVersion" v:val="VT0(15):26"/>
				<v:ud v:nameU="ArrowType" v:prompt="" v:val="VT0(2):26"/>
			</v:userDefs>
			<g id="shadow136-238" v:groupContext="shadow" v:shadowOffsetX="0.345598" v:shadowOffsetY="-1.97279" v:shadowType="1"
					transform="matrix(1,5.55112E-017,-5.55112E-017,1,1.54886,1.2698)" class="st11">
				<path d="M0 395.2 L12 383.2 L12 389.2 L67.95 389.2 L67.95 395.2 L67.95 401.2 L12 401.2 L12 407.19 L0 395.2 Z"
						class="st12"/>
			</g>
			<path d="M0 395.2 L12 383.2 L12 389.2 L67.95 389.2 L67.95 395.2 L67.95 401.2 L12 401.2 L12 407.19 L0 395.2 Z"
					class="st14"/>
		</g>
		<g id="shape137-242" v:mID="137" v:groupContext="shape" transform="translate(751.284,173.491) rotate(77.138)">
			<title>Simple Arrow.137</title>
			<v:userDefs>
				<v:ud v:nameU="visVersion" v:val="VT0(15):26"/>
				<v:ud v:nameU="ArrowType" v:prompt="" v:val="VT0(2):26"/>
			</v:userDefs>
			<g id="shadow137-243" v:groupContext="shadow" v:shadowOffsetX="0.345598" v:shadowOffsetY="-1.97279" v:shadowType="1"
					transform="matrix(1,0,0,1,2.00022,0.102223)" class="st11">
				<path d="M0 395.2 L12 383.2 L12 389.2 L47.17 389.2 L47.17 395.2 L47.17 401.2 L12 401.2 L12 407.19 L0 395.2 Z"
						class="st12"/>
			</g>
			<path d="M0 395.2 L12 383.2 L12 389.2 L47.17 389.2 L47.17 395.2 L47.17 401.2 L12 401.2 L12 407.19 L0 395.2 Z"
					class="st14"/>
		</g>
		<g id="shape135-247" v:mID="135" v:groupContext="shape" transform="translate(463.78,644.153) rotate(153.994)">
			<title>Simple Arrow.135</title>
			<v:userDefs>
				<v:ud v:nameU="visVersion" v:val="VT0(15):26"/>
				<v:ud v:nameU="ArrowType" v:prompt="" v:val="VT0(2):26"/>
			</v:userDefs>
			<g id="shadow135-248" v:groupContext="shadow" v:shadowOffsetX="0.345598" v:shadowOffsetY="-1.97279" v:shadowType="1"
					transform="matrix(1,0,0,1,0.554388,-1.92458)" class="st11">
				<path d="M0 395.2 L12 383.2 L12 389.2 L70.38 389.2 L70.38 395.2 L70.38 401.2 L12 401.2 L12 407.19 L0 395.2 Z"
						class="st12"/>
			</g>
			<path d="M0 395.2 L12 383.2 L12 389.2 L70.38 389.2 L70.38 395.2 L70.38 401.2 L12 401.2 L12 407.19 L0 395.2 Z"
					class="st13"/>
		</g>
		<g id="shape138-252" v:mID="138" v:groupContext="shape" transform="translate(121.5,-311.625)">
			<title>Sheet.138</title>
			<desc>Computation Stuff</desc>
			<v:textBlock v:margins="rect(4,4,4,4)"/>
			<v:textRect cx="122.063" cy="386.668" width="244.13" height="17.0628"/>
			<rect x="0" y="378.137" width="244.125" height="17.0628" class="st6"/>
			<text x="32.09" y="393.87" class="st7" v:langID="1033"><v:paragraph v:horizAlign="1"/><v:tabList/>Computation Stuff</text>		</g>
	</g>
</svg>
